<svg width="34" height="34" viewBox="0 0 34 34" fill="none" xmlns="http://www.w3.org/2000/svg">
<path d="M14.8721 6.43243L8.10951 8.21207C7.31436 8.42132 6.91678 8.52594 6.61481 8.77003C6.51556 8.85025 6.42507 8.94074 6.34484 9.03999C6.10076 9.34197 5.99613 9.73954 5.78688 10.5347L1.96876 25.0436C0.99319 28.7507 0.505407 30.6043 1.27119 31.7812C1.51235 32.1518 1.8284 32.4679 2.19903 32.709C3.37592 33.4748 5.22949 32.987 8.93663 32.0115L23.4455 28.1933C24.2407 27.9841 24.6383 27.8795 24.9402 27.6354C25.0395 27.5552 25.13 27.4647 25.2102 27.3654C25.4543 27.0634 25.5589 26.6659 25.7682 25.8707L27.5478 19.1081M14.8721 6.43243L27.5478 19.1081M14.8721 6.43243L17.9998 3.30479C18.96 2.34453 19.4402 1.8644 20.0213 1.77236C20.209 1.74263 20.4001 1.74263 20.5878 1.77236C21.1689 1.8644 21.6491 2.34453 22.6093 3.30479L30.6754 11.3709C31.6357 12.3311 32.1158 12.8113 32.2079 13.3924C32.2376 13.5801 32.2376 13.7713 32.2079 13.9589C32.1158 14.5401 31.6357 15.0202 30.6754 15.9805L27.5478 19.1081" stroke-width="1.7633" stroke-linecap="round" stroke-linejoin="round"/>
<path d="M12.382 21.6062C11.0694 20.2936 11.0694 18.1655 12.382 16.8529C13.6946 15.5403 15.8228 15.5403 17.1354 16.8529C18.448 18.1655 18.448 20.2936 17.1354 21.6062C15.8228 22.9189 13.6946 22.9189 12.382 21.6062ZM12.382 21.6062L7.62866 26.3596"  stroke-width="2.71622" stroke-linecap="round" stroke-linejoin="round"/>
</svg>
