<svg width="35" height="35" viewBox="0 0 35 35" fill="none" xmlns="http://www.w3.org/2000/svg">
<path  d="M27.3491 11.9896C27.3491 13.7977 25.8358 15.2635 23.9691 15.2635C22.1024 15.2635 20.5891 13.7977 20.5891 11.9896C20.5891 10.1814 22.1024 8.71564 23.9691 8.71564C25.8358 8.71564 27.3491 10.1814 27.3491 11.9896Z"  stroke-width="1.65"/>
<path  d="M14.7949 11.9896C14.7949 13.7977 13.2816 15.2635 11.4149 15.2635C9.54817 15.2635 8.0349 13.7977 8.0349 11.9896C8.0349 10.1814 9.54817 8.71564 11.4149 8.71564C13.2816 8.71564 14.7949 10.1814 14.7949 11.9896Z"  stroke-width="1.65"/>
<path  d="M15.7606 23.2145C15.7606 25.0226 14.2473 26.4884 12.3806 26.4884C10.5139 26.4884 9.00061 25.0226 9.00061 23.2145C9.00061 21.4063 10.5139 19.9406 12.3806 19.9406C14.2473 19.9406 15.7606 21.4063 15.7606 23.2145Z"  stroke-width="1.65"/>
<path  d="M33.9966 13.1802C33.7962 4.86495 21.706 -0.340288 12.9008 1.26032C4.09565 2.86093 -0.164172 11.5373 1.27492 19.9405C2.6741 28.1108 11.8977 33.9717 17.692 33.9717C23.4862 33.9717 28.3148 31.1655 24.2409 27.8215C23.1075 26.9432 22.1844 25.8372 21.5353 24.5797C20.5616 22.6934 22.3234 20.0005 24.4923 20.1856C28.894 20.5613 34.1529 19.6644 33.9966 13.1802Z"  stroke-width="1.65"/>
</svg>
