<svg width="36" height="36" viewBox="0 0 36 36" fill="none" xmlns="http://www.w3.org/2000/svg">
<path d="M15.1207 9.51757C14.8198 11.1509 14.5342 14.2764 14.5342 15.9376C14.5342 17.5987 14.6097 20.7778 15.1207 22.3576M15.1207 9.51757L18.4579 6.59357C22.6086 2.95681 24.6839 1.13843 26.4569 1.49158C27.0083 1.60143 27.5272 1.83664 27.9732 2.17903C29.4072 3.27978 29.4072 6.03904 29.4072 11.5576V20.2794C29.4072 25.7168 29.4072 28.4356 27.9866 29.5365C27.5447 29.8789 27.0292 30.1162 26.4817 30.2292C24.7215 30.5925 22.6576 28.8257 18.5298 25.2922C16.6338 23.6692 15.2248 22.4588 15.1207 22.3576M15.1207 9.51757C14.3905 9.46649 11.11 9.46547 7.95402 9.47771C5.33882 9.48786 4.03121 9.49294 3.09423 10.1439C2.7328 10.3951 2.41687 10.7122 2.16715 11.0746C1.51978 12.0141 1.51978 13.3268 1.51978 15.9522V15.9522C1.51978 18.5899 1.51978 19.9088 2.17108 20.8502C2.42232 21.2133 2.73991 21.5306 3.10331 21.7815C4.04537 22.4318 5.35943 22.4305 7.98755 22.4278C11.1332 22.4246 14.3931 22.4085 15.1207 22.3576M5.23864 22.4203L5.19822 31.8253C5.19169 33.346 6.42301 34.582 7.94366 34.5812V34.5812C9.45859 34.5804 10.6863 33.3521 10.6863 31.8371V22.4212M33.1254 8.46567C34.9846 14.0696 34.9846 17.8055 33.1254 23.4095" stroke-width="1.5" stroke-linecap="round" stroke-linejoin="round"/>
</svg>
