<svg width="33" height="33" viewBox="0 0 33 33" fill="none" xmlns="http://www.w3.org/2000/svg">
<path d="M25.2 3.52767C25.9999 4.23507 26.4751 5.11883 26.4753 6.07742C26.4754 7.036 26.0006 7.91957 25.201 8.62667M29.8045 0.97168C30.9372 2.50824 31.575 4.24295 31.5753 6.07886C31.5757 7.90933 30.9424 9.63894 29.8166 11.1717M15 11.1717C12.1833 11.1717 9.9 8.88833 9.9 6.07168C9.9 3.25503 12.1833 0.97168 15 0.97168C17.8167 0.97168 20.1 3.25503 20.1 6.07168C20.1 8.88833 17.8167 11.1717 15 11.1717ZM7.07645 31.5717H22.9235C27.1921 31.5717 30.0473 27.1781 28.3137 23.2775V23.2775C26.4203 19.0173 22.1955 16.2717 17.5334 16.2717H12.4666C7.80454 16.2717 3.57974 19.0173 1.6863 23.2775V23.2775C-0.047318 27.1781 2.80792 31.5717 7.07645 31.5717Z" stroke-width="1.5" stroke-linecap="round" stroke-linejoin="round"/>
</svg>
