<svg width="35" height="32" viewBox="0 0 35 32" fill="none" xmlns="http://www.w3.org/2000/svg">
<path d="M11.8529 16.0238L8.07509 11.0064L9.8189 8.99011C10.707 7.96327 11.151 7.44984 11.7208 7.12768C11.9089 7.02129 12.1058 6.93124 12.3094 6.85852C12.9258 6.63835 13.6046 6.63835 14.9622 6.63835H17.5195M7.95031 3.1112L4.49029 6.78747C2.81319 8.56939 1.97464 9.46035 1.76711 10.5361C1.69967 10.8857 1.68198 11.243 1.71458 11.5976C1.81489 12.6886 2.56138 13.658 4.05436 15.5968L12.1318 26.0863C14.3168 28.9237 15.4093 30.3424 16.8324 30.6057C17.2866 30.6897 17.7524 30.6897 18.2067 30.6057C19.6297 30.3424 20.7222 28.9237 22.9072 26.0863L30.9847 15.5968C32.4777 13.658 33.2242 12.6886 33.3245 11.5976C33.3571 11.243 33.3394 10.8857 33.272 10.5361C33.0644 9.46035 32.2259 8.56939 30.5488 6.78747L27.0888 3.1112C26.208 2.17539 25.7676 1.70749 25.2188 1.41516C25.0374 1.31853 24.8484 1.23687 24.6537 1.17099C24.0646 0.97168 23.4221 0.97168 22.137 0.97168H12.9021C11.617 0.97168 10.9744 0.97168 10.3854 1.17099C10.1907 1.23687 10.0017 1.31853 9.82028 1.41516C9.27145 1.70749 8.83107 2.17539 7.95031 3.1112Z"  stroke-width="1.5" stroke-linecap="round" stroke-linejoin="round"/>
</svg>
